HIERARCHY
ROOT Hips
{
	OFFSET -0.001795 -0.223333 0.028219
	CHANNELS 6 Xposition Yposition Zposition Zrotation Yrotation Xrotation 
	JOINT LeftUpLeg
	{
		OFFSET 0.069520 -0.091406 -0.006815
		CHANNELS 3 Zrotation Yrotation Xrotation
		JOINT LeftLeg
		{
			OFFSET 0.034277 -0.375199 -0.004496
			CHANNELS 3 Zrotation Yrotation Xrotation
			JOINT LeftFoot
			{
				OFFSET -0.013596 -0.397961 -0.043693
				CHANNELS 3 Zrotation Yrotation Xrotation
				JOINT LeftToe
				{
					OFFSET 0.026358 -0.055791 0.119288
					CHANNELS 3 Zrotation Yrotation Xrotation
					End Site
					{
						OFFSET 0.000000 0.000000 0.000000
					}
				}
			}
		}
	}
	JOINT RightUpLeg
	{
		OFFSET -0.067670 -0.090522 -0.004320
		CHANNELS 3 Zrotation Yrotation Xrotation
		JOINT RightLeg
		{
			OFFSET -0.038290 -0.382569 -0.008850
			CHANNELS 3 Zrotation Yrotation Xrotation
			JOINT RightFoot
			{
				OFFSET 0.015774 -0.398415 -0.042312
				CHANNELS 3 Zrotation Yrotation Xrotation
				JOINT RightToe
				{
					OFFSET -0.025372 -0.048144 0.123348
					CHANNELS 3 Zrotation Yrotation Xrotation
					End Site
					{
						OFFSET 0.000000 0.000000 0.000000
					}
				}
			}
		}
	}
	JOINT Spine
	{
		OFFSET -0.002533 0.108963 -0.026696
		CHANNELS 3 Zrotation Yrotation Xrotation
		JOINT Spine1
		{
			OFFSET 0.005487 0.135180 0.001092
			CHANNELS 3 Zrotation Yrotation Xrotation
			JOINT Spine2
			{
				OFFSET 0.001457 0.052922 0.025425
				CHANNELS 3 Zrotation Yrotation Xrotation
				JOINT Neck
				{
					OFFSET -0.002778 0.213870 -0.042857
					CHANNELS 3 Zrotation Yrotation Xrotation
					JOINT Head
					{
						OFFSET 0.005152 0.064970 0.051349
						CHANNELS 3 Zrotation Yrotation Xrotation
						End Site
						{
							OFFSET 0.000000 0.000000 0.000000
						}
					}
				}
				JOINT LeftShoulder
				{
					OFFSET 0.078845 0.121749 -0.034090
					CHANNELS 3 Zrotation Yrotation Xrotation
					JOINT LeftArm
					{
						OFFSET 0.090977 0.030469 -0.008868
						CHANNELS 3 Zrotation Yrotation Xrotation
						JOINT LeftForeArm
						{
							OFFSET 0.259612 -0.012772 -0.027456
							CHANNELS 3 Zrotation Yrotation Xrotation
							JOINT LeftHand
							{
								OFFSET 0.249234 0.008986 -0.001171
								CHANNELS 3 Zrotation Yrotation Xrotation
								End Site
								{
									OFFSET 0.000000 0.000000 0.000000
								}
							}
						}
					}
				}
				JOINT RightShoulder
				{
					OFFSET -0.081759 0.118833 -0.038615
					CHANNELS 3 Zrotation Yrotation Xrotation
					JOINT RightArm
					{
						OFFSET -0.096012 0.032551 -0.009143
						CHANNELS 3 Zrotation Yrotation Xrotation
						JOINT RightForeArm
						{
							OFFSET -0.253742 -0.013329 -0.021401
							CHANNELS 3 Zrotation Yrotation Xrotation
							JOINT RightHand
							{
								OFFSET -0.255298 0.007772 -0.005559
								CHANNELS 3 Zrotation Yrotation Xrotation
								End Site
								{
									OFFSET 0.000000 0.000000 0.000000
								}
							}
						}
					}
				}
			}
		}
	}
}
MOTION
Frames: 7
Frame Time: 0.050000
0.000000 0.945402 0.000000 -1.632535 6.045890 0.633552 2.817489 -0.196120 -1.970448 -1.354267 0.023605 3.990483 2.365761 5.954109 2.495421 0.000000 0.000000 0.000000 -1.755991 1.554467 -20.175043 -2.265584 1.364940 25.731702 3.317654 7.186009 2.118885 0.000000 0.000000 0.000000 3.565211 -0.701385 8.608591 1.356753 -0.692846 0.612856 -7.266277 -2.509898 11.081953 8.698806 -5.093814 -11.310548 0.000000 0.000000 0.000000 -10.313821 -21.985496 8.730195 -53.641744 -21.185082 2.622626 1.318856 -33.788355 0.931988 0.000000 0.000000 0.000000 10.977497 8.778171 3.447112 58.674936 6.966286 -2.864734 3.754110 35.631221 2.707493 0.000000 0.000000 0.000000 
0.000383 0.945723 0.005762 -1.515740 5.415107 1.462377 3.005702 -0.189557 -1.788987 -1.950503 0.132767 2.787082 2.403242 5.411118 0.966294 0.000000 0.000000 0.000000 -1.368876 1.704194 -21.040669 -3.253195 1.631796 22.846136 4.656666 10.182224 2.551556 0.000000 0.000000 0.000000 4.895335 -0.727023 7.481150 0.379112 -0.229773 0.876044 -7.364688 -3.656139 11.104534 9.504626 -6.167769 -9.314106 0.000000 0.000000 0.000000 -9.554504 -24.349125 9.991087 -54.895595 -24.084958 4.190768 4.248629 -32.673274 0.152943 0.000000 0.000000 0.000000 10.496863 8.624178 3.129009 61.995062 6.765967 -3.112499 2.627665 36.385664 2.314211 0.000000 0.000000 0.000000 
-0.000354 0.947101 0.013494 -0.646603 4.403468 1.667456 2.160952 -0.175035 -1.761378 -2.397626 0.183932 3.358739 1.693220 4.470753 2.144255 0.000000 0.000000 0.000000 -1.201951 1.736532 -20.587468 -5.068943 1.876727 17.114709 8.411526 16.864423 5.500125 0.000000 0.000000 0.000000 4.822012 -0.670783 6.972375 0.206474 -0.083760 -0.394701 -7.023396 -3.345967 12.972406 6.721059 -3.788824 -12.223475 0.000000 0.000000 0.000000 -9.176216 -26.281815 10.880529 -53.843596 -28.952803 6.310729 4.075570 -32.638909 0.231257 0.000000 0.000000 0.000000 10.002984 9.139584 3.327361 62.888881 7.042699 -3.180215 1.364928 36.798273 1.954327 0.000000 0.000000 0.000000 
-0.001359 0.948007 0.023576 -0.149137 4.950750 2.262849 2.005447 -0.192493 -1.971964 -2.357616 0.176051 3.264725 1.757457 4.557307 2.023571 0.000000 0.000000 0.000000 -1.445309 1.606286 -19.579384 -5.006765 1.555887 13.029357 9.522975 17.418712 7.954871 0.000000 0.000000 0.000000 5.484826 -0.622234 5.761846 0.583651 -0.285332 0.058982 -7.164729 -4.741562 12.436834 5.694536 -3.436858 -10.225851 0.000000 0.000000 0.000000 -8.193897 -27.716013 11.513369 -56.444457 -34.154941 9.734759 4.290368 -32.594057 0.218796 0.000000 0.000000 0.000000 8.818858 10.422071 3.712175 63.176766 8.272433 -2.518425 1.042544 37.055367 1.741430 0.000000 0.000000 0.000000 
-0.002796 0.949082 0.034562 0.540183 5.067131 2.402006 1.328080 -0.166344 -1.720883 -2.171284 0.144292 3.632953 1.861199 4.799031 2.110682 0.000000 0.000000 0.000000 -2.440733 1.339137 -17.863744 -4.445322 1.276010 10.778107 9.697053 16.473389 9.687843 0.000000 0.000000 0.000000 5.881279 -0.587429 5.098327 0.989103 -0.429878 -0.839026 -7.060330 -5.794637 13.379117 5.117653 -3.174598 -10.023420 0.000000 0.000000 0.000000 -8.073864 -29.304292 12.376829 -55.593878 -38.652005 12.003581 5.450158 -32.834037 -0.075773 0.000000 0.000000 0.000000 8.198203 10.723121 3.710113 63.799130 9.920938 -1.806602 0.616309 38.087520 1.587427 0.000000 0.000000 0.000000 
-0.004774 0.950427 0.045656 0.607620 4.899412 2.971437 1.318321 -0.169138 -1.740338 -1.621623 0.066724 3.925165 1.843103 4.663708 1.873053 0.000000 0.000000 0.000000 -2.713843 1.262112 -17.092231 -3.983884 1.078354 9.180959 9.572929 16.114285 9.838713 0.000000 0.000000 0.000000 6.677647 -0.608326 4.656983 1.174808 -0.522887 -0.734533 -6.347316 -6.780905 13.030747 4.019790 -2.581129 -9.109325 0.000000 0.000000 0.000000 -6.944796 -30.744650 12.937914 -57.113224 -43.248777 15.374307 7.025596 -32.355428 -0.492010 0.000000 0.000000 0.000000 7.306927 11.319788 3.805520 64.597823 11.438676 -1.037282 0.333809 39.567154 1.421459 0.000000 0.000000 0.000000 
-0.006722 0.950988 0.056019 0.716272 4.055496 3.276363 1.476113 -0.179908 -1.851998 -1.929787 0.112351 3.959372 2.410337 5.862095 2.094355 0.000000 0.000000 0.000000 -2.933862 1.221672 -16.522862 -3.415104 0.938587 8.596424 9.589272 16.067756 9.880001 0.000000 0.000000 0.000000 7.647388 -0.590446 3.890065 1.200706 -0.566034 -0.173242 -6.001873 -7.430095 12.677463 3.220861 -2.114110 -8.805083 0.000000 0.000000 0.000000 -6.996008 -31.877247 13.656810 -55.697230 -45.964408 16.617113 7.493802 -32.520585 -0.627467 0.000000 0.000000 0.000000 7.345946 12.944680 4.323044 64.970220 13.606488 0.144462 -1.149644 40.199158 0.780177 0.000000 0.000000 0.000000 
